<?xml version="1.0" encoding="utf-8"?>
<!-- Generator: Adobe Illustrator 23.0.3, SVG Export Plug-In . SVG Version: 6.00 Build 0)  -->
<svg version="1.1" id="Layer_1" xmlns="http://www.w3.org/2000/svg" xmlns:xlink="http://www.w3.org/1999/xlink" x="0px" y="0px"
	 viewBox="0 0 1041.3 554.2" style="enable-background:new 0 0 1041.3 554.2;" xml:space="preserve">
<style type="text/css">
	.st0{font-family:'ArialMT';}
	.st1{font-size:12px;}
	.st2{fill:#3F3D56;}
	.st3{fill:#65617D;}
	.st4{opacity:0.2;enable-background:new    ;}
	.st5{opacity:0.1;enable-background:new    ;}
	.st6{fill:#0967D2;}
	.st7{fill:#F5F7FA;}
	.st8{fill:#FBBEBE;}
	.st9{fill:url(#SVGID_1_);}
	.st10{fill:#03449E;}
	.st11{fill:#1F2933;}
	.st12{opacity:0.1;}
	.st13{fill:none;stroke:#05606E;stroke-width:2;stroke-miterlimit:10;}
</style>
<title>undraw_programming_2svr</title>
<text transform="matrix(1 9.953540e-03 -9.953540e-03 1 305.2313 399.1884)" class="st0 st1">BAE3FF</text>
<rect x="192.5" y="287.5" transform="matrix(9.953540e-03 -1 1 9.953540e-03 -77.8631 515.4149)" class="st2" width="57.7" height="19"/>
<rect x="702.1" y="291.3" transform="matrix(9.953540e-03 -1 1 9.953540e-03 424.5968 1030.3798)" class="st2" width="61" height="19"/>
<polygon class="st3" points="860.9,542.5 860.8,555.5 708.9,555.2 707.3,555.3 649.5,555.3 648.1,555.2 630.6,555.3 630.1,555.3 
	523.1,555.2 347.5,555 347.3,555 302.7,555 302.2,555 103.8,554.9 103.9,539.9 150.9,512.3 244.5,512.5 246.5,512.5 247.1,512.5 
	249.1,512.5 294.1,512.6 296.1,512.5 296.7,512.5 298.7,512.6 313.1,512.6 313.5,512.6 349,512.7 349.3,512.7 626.7,513 
	633.5,513.1 634.2,513.1 639.4,513.1 677,513.1 679,513.1 680.9,513.2 681.8,513.2 693.6,513.2 695.9,513.2 699,513.1 708.7,513.2 
	724.2,513.2 726.2,513.2 729.7,513.2 730.3,513.3 805,513.3 "/>
<polygon class="st4" points="860.9,542.5 860.8,555.5 708.9,555.2 707.3,555.3 649.5,555.3 648.1,555.2 630.6,555.3 630.1,555.3 
	523.1,555.2 347.5,555 347.3,555 302.7,555 302.2,555 103.8,554.9 103.9,539.9 150.9,512.3 244.5,512.5 246.5,512.5 247.1,512.5 
	249.1,512.5 294.1,512.6 296.1,512.5 296.7,512.5 298.7,512.6 313.1,512.6 313.5,512.6 349,512.7 349.3,512.7 626.7,513 
	633.5,513.1 634.2,513.1 639.4,513.1 677,513.1 679,513.1 680.9,513.2 681.8,513.2 693.6,513.2 695.9,513.2 699,513.1 708.7,513.2 
	724.2,513.2 726.2,513.2 729.7,513.2 730.3,513.3 805,513.3 "/>
<path class="st2" d="M294.5,486.8l-0.2,24.5c0,2.4-1.4,4.5-3.6,5.5c-0.8,0.4-1.6,0.6-2.5,0.6l-34.9,0.4c-0.9,0-1.9-0.2-2.7-0.6
	c-2.2-1-3.6-3.2-3.5-5.6l0.3-25.2l47.2,0.5L294.5,486.8z"/>
<path class="st5" d="M294.5,486.8l-0.2,24.5c0,2.4-1.4,4.5-3.6,5.5c-0.8,0.4-1.6,0.6-2.5,0.6l-34.9,0.4c-0.9,0-1.9-0.2-2.7-0.6
	c-2.2-1-3.6-3.2-3.5-5.6l0.3-25.2l47.2,0.5L294.5,486.8z"/>
<path class="st2" d="M296.5,486.8l-0.2,24.5c0,2.4-1.4,4.5-3.6,5.5c-0.8,0.4-1.6,0.6-2.5,0.6l-34.9,0.4c-0.9,0-1.9-0.2-2.7-0.6
	c-2.2-1-3.6-3.2-3.5-5.6l0.3-25.2l47.2,0.5L296.5,486.8z"/>
<rect x="686.9" y="483" transform="matrix(9.953540e-03 -1 1 9.953540e-03 189.0925 1204.2438)" class="st2" width="31.5" height="47.2"/>
<rect x="686.9" y="483" transform="matrix(9.953540e-03 -1 1 9.953540e-03 189.0925 1204.2438)" class="st5" width="31.5" height="47.2"/>
<rect x="684.9" y="483" transform="matrix(9.953540e-03 -1 1 9.953540e-03 187.1324 1202.2242)" class="st2" width="31.5" height="47.2"/>
<polygon class="st5" points="231.1,268.3 231.1,274 212.1,273.4 212.1,268.1 "/>
<path class="st3" d="M357.8,108.1l-24.4,163.8c-0.3,2.2-2.2,3.8-4.4,3.7L146.2,269l-3.5-0.1c-2.4,0-4.2-2-4.2-4.3c0,0,0,0,0-0.1
	l0-0.5l27.3-171.4c0.3-2.2,2.3-3.8,4.5-3.6l183.4,14.2c2.3,0.1,4.1,2.1,4,4.4l0,0.1C357.8,107.8,357.8,107.9,357.8,108.1z"/>
<polygon class="st6" points="178.1,101.1 157.3,252.2 325.2,259.2 347.4,113.4 "/>
<path class="st3" d="M392.1,100.9l194,1.9c2.9,0,5.3,2.5,5.2,5.4l-1.6,162.7c0,2.9-2.5,5.3-5.4,5.2l-194-1.9c-2.9,0-5.3-2.5-5.2-5.4
	l1.6-162.6C386.8,103.2,389.1,100.8,392.1,100.9z"/>
<rect x="416.5" y="92.7" transform="matrix(9.953540e-03 -1 1 9.953540e-03 298.1368 672.4867)" class="st6" width="144.3" height="186"/>
<polygon class="st5" points="742.4,270.4 742.4,274.2 723.4,274.4 723.4,270.2 "/>
<path class="st3" d="M828.3,268c0.1,1.7-1.2,3.2-2.9,3.3l-0.1,0l-187.2,2c-1.6,0-3-1.2-3.1-2.8L620.4,103c-0.2-1.7,1.1-3.2,2.8-3.4
	l0.1,0l185.9-7.4l2-0.1c1.7-0.1,3.1,1.1,3.2,2.8l0,0L828.3,268z"/>
<polygon class="st6" points="631,109.6 800.8,102.9 813.6,255.1 645.3,257.4 "/>
<path class="st5" d="M828.3,268c0.1,1.7-1.2,3.2-2.9,3.3l-0.1,0l-16-179l2-0.1c1.7-0.1,3.1,1.1,3.2,2.8l0,0L828.3,268z"/>
<path class="st5" d="M170.5,89L146.1,269l-3.5-0.1c-2.4,0-4.2-2-4.2-4.3c0,0,0,0,0-0.1l0-0.5l27.3-171.4
	C166.2,90.3,168.2,88.7,170.5,89z"/>
<rect x="212.6" y="307.8" transform="matrix(9.953540e-03 -1 1 9.953540e-03 -98.3611 535.3098)" class="st5" width="17.1" height="19"/>
<polygon class="st5" points="296.5,486.7 296.4,491.7 249.2,492.6 249.3,486.3 "/>
<path class="st3" d="M381.5,316.4l-1.7,168.2c0,2.2-1.7,3.9-3.9,4l-191.6,3.2l0,0c-2.2,0-4-1.8-4-4l1.7-173.3c0-2.2,1.8-4,4-4
	l191.6,1.9C379.7,312.5,381.5,314.2,381.5,316.4z"/>
<path class="st5" d="M186,310.4l-1.8,181.2l0,0c-2.2,0-4-1.8-4-4l1.7-173.2C182,312.2,183.8,310.4,186,310.4z"/>
<polygon class="st7" points="194.6,321.2 372.1,323 370.6,471.3 193.1,473.5 "/>
<rect x="723.7" y="313.1" transform="matrix(9.953540e-03 -1 1 9.953540e-03 402.5841 1051.7448)" class="st5" width="17.4" height="19"/>
<polygon class="st5" points="724.4,491 724.4,497.5 677.2,495.7 677.3,490.5 "/>
<path class="st3" d="M788.3,320.4l-1.7,173.3c0,2.2-1.8,4-4,4l0,0l-191.6-7c-2.1-0.1-3.8-1.9-3.8-4l1.7-168.2c0-2.2,1.7-3.9,3.9-4
	l191.6,1.9C786.6,316.4,788.4,318.2,788.3,320.4z"/>
<path class="st5" d="M788.3,320.4l-1.7,173.3c0,2.2-1.8,4-4,4l0,0l1.8-181.3l0,0C786.6,316.4,788.4,318.2,788.3,320.4z"/>
<polygon class="st7" points="775.6,327 598.1,325.2 596.6,473.5 774.1,479.3 "/>
<path class="st3" d="M583.9,318.4l-1.7,168.2c0,2.1-1.7,3.9-3.8,4l-191.6,3.2l0,0c-2.2,0-4-1.8-4-4l1.7-173.3c0-2.2,1.8-4,4-4
	l191.6,1.9C582.2,314.4,583.9,316.2,583.9,318.4z"/>
<polygon class="st7" points="397.1,323.2 574.6,325 573.1,473.3 395.6,475.5 "/>
<polygon class="st5" points="860.9,542.5 860.8,555.5 708.9,555.2 707.3,555.3 649.5,555.3 648.1,555.2 630.6,555.3 630.1,555.3 
	523.1,555.2 347.5,555 347.3,555 302.7,555 302.2,555 103.8,554.9 103.9,539.9 306.4,540.5 306.9,540.5 347.9,540.7 348.1,540.7 
	631.1,541.7 631.4,541.7 631.6,541.7 632.1,541.7 636.9,541.6 638.3,541.6 712.8,541.9 717.2,541.9 718.2,541.9 "/>
<ellipse class="st8" cx="487.8" cy="277.2" rx="51.3" ry="51.3"/>
<linearGradient id="SVGID_1_" gradientUnits="userSpaceOnUse" x1="597.8942" y1="1202.4397" x2="597.8942" y2="825.1059" gradientTransform="matrix(1 9.953547e-03 -9.953547e-03 1 -69.7239 -650.5065)">
	<stop  offset="0" style="stop-color:#808080;stop-opacity:0.25"/>
	<stop  offset="0.54" style="stop-color:#808080;stop-opacity:0.12"/>
	<stop  offset="1" style="stop-color:#808080;stop-opacity:0.1"/>
</linearGradient>
<path class="st9" d="M302.1,555.4c0-0.1,0.1-0.2,0.1-0.3c1-3.6,2.9-9.7,4.2-14.5c0.2-0.6,0.3-1.2,0.5-1.8c1.6-5.5,4.5-18.3,6.2-26.2
	c0.6-2.8,1-5,1.2-6.1c0.2-1.7,3.3-8.9,6.8-17.1c2.5-5.8,5.1-12.1,7.1-17.5c1.3-3.2,2.3-6.5,3-9.8c0.1-0.7,0.1-1.4,0-2.1
	c-0.3-1.1-0.5-2.3-0.5-3.5l0,0c-0.1-6.2,1.8-16,4.7-20.1c3.5-5,6.2-23.6,6.2-23.6s5.2,0.9,6-3.4c0.1-0.5,0.1-0.9,0.1-1.4
	c0-0.4,0-0.7-0.1-1.1c-0.8-6.2,14.8-12.8,23.6-14.1c1-0.2,2-0.3,3-0.3c2.1-0.2,4.3-0.7,6.3-1.3c0.9-0.3,1.9-0.6,3-1
	c3.7-1.2,8.1-2.8,12.8-4.6c17.7-6.6,39-15.6,39-15.6c0.2-0.7,0.3-1.4,0.5-2.1c2.2-8.5,8.4-15.5,16.5-18.7l0,0l0-2
	c0-3.5-0.1-7-0.2-10.5c0-0.7-0.1-1.4-0.1-2.1l0-1.1c0-0.7-0.1-1.4-0.1-2.1l-0.2-0.1c-1.5-1.2-2.8-2.6-3.9-4.2
	c-0.6-0.9-1.1-1.9-1.4-3c-1.3-3.4-1.4-7.2-2.3-10.8l-0.2-0.7c-1.1-3.6-2.3-7.2-3.9-10.6c-2.1-5.4-3.8-11-5.4-16.7
	c-1-3.4-2-6.8-3-10.3l-1.5-5.2c-0.3-1-0.6-2-0.8-3l0,0c-0.1-0.5-0.2-0.9-0.3-1.4l0,0c-0.3-1.5-0.2-3.1,0.2-4.6c0.4-1,0.8-2,1.3-3
	c0.2-0.4,0.4-0.9,0.5-1.4l0,0c0-0.1,0.1-0.2,0.1-0.3c0.1-0.4,0.1-0.7,0.1-1.1c0-1.3-0.2-2.6-0.5-3.9l0,0l0-0.3c-0.2-1-0.3-2-0.4-3
	c-0.2-5.4,1-10.8,3.7-15.6l0.2-0.4c0.6-1,1.2-1.9,1.8-2.8l0,0c0.3-0.4,0.6-0.8,1-1.2c-1.4,1.3-3.7,0.8-5-0.7
	c-0.2-0.2-0.4-0.5-0.5-0.8c-0.1-0.1-0.2-0.3-0.2-0.5c0-0.1-0.1-0.3-0.1-0.4c-0.7-2.5,0.6-5.1,2.2-7s3.5-3.5,5.7-4.6l0,0
	c0.1-0.1,0.3-0.1,0.4-0.2c0.8-0.4,1.7-0.8,2.6-1.1l0,0c0.5-0.2,1.1-0.3,1.6-0.4l-3.7-0.3l-1.5-0.1c1.6-6.1,6.9-10.4,13.1-10.8l1.1,0
	c0.5,0,1.1,0.1,1.6,0.1c-1.7-0.7-2.8-2.4-2.7-4.3c2.6,2,5.9,3.2,9.2,3.2l0.4,0c-0.2-1.1-0.3-2.2-0.3-3.3l0,0c-0.1-1.5-0.1-3,0-4.5
	c1.8,1.7,4.3,2.5,6.8,2.4l-2.1-2.9c1.9,1.5,4.2,2.2,6.6,2.1l0.5,0c0.4,0,0.8-0.1,1.2-0.2l0.1,0c-0.2-0.2-0.4-0.5-0.5-0.8l-0.1-0.1
	c-0.4-0.7-0.7-1.4-1-2.1c-0.1-0.3-0.2-0.6-0.2-0.9l0,0c-0.4-1.8-0.3-3.8,0.6-5.5c3.2,2.7,6.7,6.5,11,3.7c4.2-2.8,4.5-7.9,11.1-7.3
	c3.7,0.4,6.9,2.8,8.3,6.2c1.9-2.2,5-2.9,7.7-1.7c2.6,1.2,4.2,4,3.8,6.9c2.8-0.7,5.7-1.3,8.3-0.2c2.6,1.1,4.3,4.4,2.7,6.7
	c0,0.1-0.1,0.1-0.1,0.2c-1.2,1.6-3.9,2.5-3.7,4.5l0.4,0.3l1.3,0.9l0,0c5.1,3.8,10,7.6,14.8,11.7c2.5,2.1,5.1,4.7,5.2,7.9
	c0,0.8-0.1,1.6-0.2,2.4l0,0c-0.2,0.8-0.4,1.6-0.5,2.3c-0.4,2-0.5,4-0.4,6l0,0l0.3,1.8c1.4,7.7,7.6,14.2,8.1,22.1l0,0.6
	c0,0.8,0,1.7-0.1,2.5c-0.5,4.8-2.8,9.4-4.6,14c-0.1,0.3-0.2,0.5-0.3,0.8c-3.6,9-5.7,18.5-7.3,28.1c-0.5,3.4-1.3,6.8-2.1,10.1
	c-0.9,3.8-2.8,7.3-5.2,10.3c-1,1.2-2.1,2.2-3.4,3c-0.9,0.5-1.8,1-2.7,1.4l0,0.1l0.3,1.8c0.1,0.3,0.1,0.6,0.2,1l0,0l0,0.1
	c0.8,4.7,1.7,9.4,2.7,13.8l0.5,2.2c12.6,4.6,14,14,14,17.5l0,1.4c0,0,19,0.7,26.4,6.3c1.4,1,2.9,1.7,4.5,2.3c3,1.1,6.2,2.2,9.3,3
	c1.6,0.4,3.3,0.8,5,1.2c3,0.7,6.2,1.5,9.3,2.1c8.2,1.8,15.9,3.2,19.8,4.2c9.3,2.5,30.5,23.1,30.5,23.1s2.3,20.6,4.8,23.7
	c2.5,3.1,6.9,13.7,6.9,13.7l16.2,29.6l6.9,12.5l4.5,0c0.6,0,1.8,0.9,3.2,2.1c1.2,1.1,2.5,2.4,3.7,3.6l1.9,2l1.2,1.3
	c0,0,7.3,0.3,9.1,6c5.9-0.1,13.2,0.3,18.3,2.7c0.7,0.3,1.4,0.7,2,1.1c2.1,1.2,3.6,3.3,4,5.7c0.1,0.5,0.2,0.9,0.2,1.4l0,1.7
	c-0.5,7.6-5.4,13.8-10,18l0.3,0.6c-0.2,0.3-0.3,0.7-0.4,1l-0.3,0.6l0,0c-0.8,1.8-1.8,3.6-2.9,5.4c-2.6,4.8-5.9,9.1-9.7,13.1
	l-0.3,0.3l-57.7-0.1l-0.2-0.2l-11.1-13.5l-5.5-6.7l-0.2-0.2l-0.2,1.6l-0.6,5.3l-1.4,12.8l-0.1,0.6l0,0.2l-0.2,1.5l0.1-1.5l-0.3,0
	l-107-0.1l-175.6,0.2l0,0.8l-0.1,0l0-0.8l-44.8,0.1L302.1,555.4L302.1,555.4z"/>
<path class="st8" d="M538,382.7c0,0-99.6,11-90-0.9c3.4-4.3,4.6-17.2,4.5-31.8c-0.1-4.5-0.1-9.1-0.4-13.6c-0.9-22-3.4-43.5-3.4-43.5
	s87.4-40.1,77.1-7.7c-4.1,13.1-3,31.6-0.2,48.9c0.9,5,1.8,10,2.9,14.7C531.2,360.2,534.3,371.5,538,382.7z"/>
<path class="st5" d="M538,382.7c0,0-99.6,11-90-0.9c3.4-4.3,4.6-17.2,4.5-31.8c15.3-6.3,34.5-1.4,34.5-1.4c20.3-3.8,33.4-3,41.7,0
	C531.2,360.2,534.3,371.5,538,382.7z"/>
<path class="st10" d="M347.4,556.1l0-0.8l175.6-0.2l107,0.1l0.3,0l-0.1,1.5l0.2-1.5l0.2,0l0-0.2l1.5-13.4l0.6-5.1l0.2-1.6l0.1-1.3
	l6.4-20.5l6.4-20.5l5.4-17.2l8.2-26.4c0,0-4.4-10.5-6.9-13.6c-2.5-3-4.8-23.5-4.8-23.5s-21.1-20.5-30.5-23c-3.9-1-11.6-2.4-19.8-4.2
	c-3.1-0.6-6.2-1.4-9.3-2.1c-1.7-0.4-3.4-0.8-5-1.2c-3.2-0.8-6.3-1.9-9.3-3c-1.6-0.6-3.1-1.3-4.5-2.3c-7.2-5.5-25.7-6.3-26.4-6.3l0,0
	l0-0.1l0,0l0-1.3c0-0.5,0-0.9-0.1-1.4c0-0.2,0-0.3-0.1-0.5c-0.1-0.4-0.1-0.7-0.2-1.1c0-0.2-0.1-0.3-0.1-0.5
	c-0.3-1.2-0.7-2.4-1.3-3.5c-0.1-0.2-0.2-0.3-0.2-0.5c-0.5-0.9-1.1-1.8-1.7-2.6c-0.1-0.2-0.3-0.3-0.4-0.5c-0.8-1-1.7-1.9-2.7-2.6
	c-0.3-0.2-0.5-0.4-0.8-0.6c-0.3-0.2-0.3-0.3-0.5-0.4l-0.9-0.6l-0.8-0.5c-0.7-0.4-1.5-0.8-2.3-1.2c-0.3-0.1-0.5-0.2-0.8-0.3
	c-0.3-0.1-0.7-0.3-1.1-0.4l-0.1,0l-0.7-0.3c-0.6-0.2-1.2-0.4-1.8-0.5l-0.9-0.2l-1-0.2l-1-0.2c-1.1-0.2-2.1-0.4-3.2-0.5l-1.1-0.1
	l-1.2-0.1l-1.2-0.1l-1.7-0.1l-2-0.1c-8.8-0.1-17.6,0.7-26.2,2.5c-6-1.4-12.2-2-18.3-1.9l-0.9,0l-1,0.1l-0.6,0l-1.3,0.1
	c-0.4,0-0.9,0.1-1.3,0.2c-0.4,0.1-0.9,0.1-1.3,0.2l-0.7,0.1c-0.7,0.1-1.3,0.2-2,0.4c-0.2,0-0.5,0.1-0.7,0.2
	c-0.9,0.2-1.7,0.4-2.6,0.7c-0.4,0.1-0.9,0.3-1.3,0.4c-0.2,0.1-0.4,0.1-0.6,0.2l-0.6,0.2l-0.6,0.3l-0.8,0.3c-0.4,0.1-0.7,0.3-1.1,0.5
	l-0.6,0.3l-0.6,0.3c-2.3,1.1-4.4,2.6-6.2,4.3l-0.5,0.5l-0.5,0.5l-0.5,0.5c-0.7,0.7-1.3,1.5-1.8,2.3c-0.2,0.2-0.3,0.4-0.5,0.6
	c-0.6,0.9-1.2,1.9-1.7,2.9c-0.1,0.2-0.3,0.5-0.4,0.7c-0.8,1.7-1.5,3.5-2.1,5.3c-0.2,0.7-0.4,1.3-0.5,2c-0.2,1-21.3,9.1-38.9,15.7
	c-4.7,1.8-9.1,3.3-12.8,4.6c-1.1,0.4-2.1,0.7-3,1c-2,0.7-4.2,1.2-6.3,1.3c-1,0-2,0.1-3,0.3c-8.1,1.2-22,6.8-23.5,12.5
	c-0.1,0.5-0.2,0.9-0.1,1.4l0,0.1c0.9,7-6.1,5.9-6.1,5.9s-2.7,18.5-6.2,23.4c-2.5,3.6-4.4,11.6-4.7,17.7l0,0c-0.1,1.9,0,3.8,0.3,5.6
	l0,0.1c0.4,1.3-0.6,5-2.3,9.7c-1.9,5.2-4.5,11.5-7,17.5c-3.8,9.1-7.5,17.3-7.7,19.1c-0.1,0.8-0.4,2.3-0.7,4.1
	c-1.6,7.6-4.9,22.1-6.6,27.9c-1.2,4.4-3,10.4-4.2,14.5c0,0.1-0.1,0.2-0.1,0.3l44.8,0L347.4,556.1L347.4,556.1z"/>
<path class="st5" d="M365,438.5c0,0,56.7,30.1,77.2,26.8L365,438.5z"/>
<path class="st5" d="M481.1,427.7c0,0,55.3,18.6,73.8,21.2C573.3,451.6,481.1,427.7,481.1,427.7z"/>
<path class="st5" d="M543.2,370.3c-29.1,5-83.6,3.4-107.2,2.3c9-30.9,51-20,51-20C539.3,342.7,543.1,364.5,543.2,370.3z"/>
<path class="st10" d="M543.3,368.3c-29.1,5-83.6,3.4-107.2,2.3c9-30.9,51-20,51-20C539.3,340.7,543.1,362.5,543.3,368.3z"/>
<path class="st8" d="M695.8,506.5c0,0,34.3-5,34.7,10.1c0.4,15.1-17.7,25.3-17.7,25.3L695.8,506.5z"/>
<path class="st5" d="M525.8,333.9c-1.5,0.7-3,1.2-4.5,1.7c-10.8,3.6-21.7,7.3-33.1,8.5c-11.4,1.2-23.3,0-33.1-5.8c-1-0.6-2-1.3-3-2
	c-0.9-22-3.4-43.5-3.4-43.5s87.4-40.1,77.1-7.7C521.9,298.2,523,316.6,525.8,333.9z"/>
<path class="st11" d="M474.5,196.8c-2.9,0.8-6,0-8.3-1.9l2.1,2.9c-2.5,0.3-5-0.5-6.8-2.4c-0.2,2.6-0.2,5.2,0.2,7.8
	c-3.5,0.2-6.9-1-9.6-3.1c-0.1,1.8,0.9,3.6,2.6,4.3c-7.2-1-13.9,3.6-15.7,10.5l5.2,0.6c-4.1,0.9-7.8,3-10.5,6.3c-1.6,2-2.8,4.6-2.2,7
	c0.7,2.4,4.1,4,5.9,2.4c-5.4,6.2-7.6,14.6-6.3,22.7c0.5,1.7,0.6,3.5,0.4,5.3c-0.3,1.6-1.4,3.1-1.9,4.7c-1,2.9-0.1,6.1,0.7,9
	l4.5,15.4c1.6,5.6,3.3,11.1,5.4,16.6c1.6,3.4,2.8,6.9,3.9,10.5c1.3,4.8,1.2,10.1,3.9,14.4c1.8,2.7,4.3,4.8,7.1,6.4
	c9.8,5.8,21.7,7.1,33.1,5.8c11.4-1.3,22.2-4.9,33.1-8.5c2.4-0.7,4.7-1.7,6.8-2.9c7.5-4.8,9.2-14.8,10.7-23.5
	c1.7-9.8,3.8-19.6,7.6-28.7c2.3-5.5,5.1-11,4.7-16.9c-0.5-7.8-6.7-14.2-8.1-21.9c-0.5-2.6-0.4-5.2,0.2-7.8c0.5-1.5,0.7-3.1,0.8-4.7
	c-0.2-3.2-2.7-5.7-5.2-7.9c-5.4-4.6-10.8-8.8-16.6-12.9c-0.3-2,2.4-2.9,3.7-4.4c1.7-2.2,0-5.8-2.6-6.8c-2.6-1-5.6-0.5-8.3,0.2
	c0.5-3.6-2-6.9-5.6-7.5c-2.2-0.3-4.4,0.6-5.8,2.2c-1.5-3.4-4.6-5.7-8.3-6.2c-6.6-0.6-6.8,4.4-11.1,7.2c-4.2,2.8-7.7-1-11-3.7
	C471.9,190.7,472.4,194.2,474.5,196.8z"/>
<path class="st10" d="M720.8,536.8c0,0-0.9,2.1-2.6,5.2c-2.5,4.7-5.6,9-9.1,13.1l-0.3,0.3l-1.6,0l-57.7-0.1l-1.4,0l-0.2-0.2
	l-11.1-13.4l-4.2-5l-0.2-0.2l-0.4-0.4l-0.2-0.2l-0.3-0.3l-8.1-9.8l3.1-12.5l5.3-21l0.1-0.5l1-4l0.7-3l2.5-9.8l8.5-33.6l14.4,7.6
	l15,27.2l8.1,14.6l4.5,0c0.8,0,2.8,1.6,4.8,3.5l2,2c1.8,1.8,3.2,3.4,3.2,3.4s7.3,0.3,9.2,6c0.1,0.3,0.2,0.5,0.3,0.8
	c0.7,2.3,1.5,4.5,2.4,6.6c1.3,2.8,2.8,6,4.4,9.2c3,5.8,6.1,11.5,7.2,13.5l0.1,0.3L720.8,536.8z"/>
<path class="st5" d="M635.3,490.8l-0.1,1.4l0,0.1l-0.2,2.3l-1.5,18.5l-1.8,22.3l-0.6,6.3l-1.1,13.4l0,0.2l-107-0.1l-175.6,0.2l0,0.8
	l-0.1,0l0-1.1l0.6-14.4l1.2-28.1l0.9-23.8l0.1-2.4c0.3-5.8,5.1-10.3,10.9-10.1l0,0l0.6,0c4.7,0.4,10.9,1,18.2,1.6l3,0.2
	c42.3,3.3,120.5,7.9,199.5,4l5-0.3c12.2-0.7,24.5-1.6,36.6-2.6c5.8-0.5,11,3.7,11.5,9.5C635.5,489.4,635.5,490.1,635.3,490.8
	L635.3,490.8z"/>
<path class="st2" d="M347.4,556.1l0-0.8l175.6-0.2l107,0.1l0.3,0l0-0.2l1.1-13.4l0.5-6l1.8-22.6l1.5-17.9l0-0.4
	c0.1-0.8,0-1.7-0.1-2.5l0-0.1c-0.3-1.7-1-3.2-2-4.6c-2.2-2.9-5.8-4.5-9.4-4.1c-12.1,1.1-24.3,2-36.6,2.6l-5,0.3
	c-78.9,3.9-157.2-0.7-199.5-4l-3-0.2c-7.3-0.6-13.5-1.1-18.2-1.6c-5.4-0.6-10.2,3.1-11.3,8.4c-0.1,0.5-0.2,1.1-0.2,1.6l-0.9,22.2
	l-1.2,28.1l-0.5,14.4L347.4,556.1z"/>
<path class="st5" d="M635.6,497.8l-1.4,15.3l-2,22.8l-0.6,5.7l-1.1,12.8l-0.1,0.6l0,0.2l0,0l-0.2,1.5l0.1-1.5l-0.3,0l-107-0.1
	l-175.6,0.2l0-0.3l0.6-14.4l1.3-28.1l0.8-18.7c0.1-2.2,1.2-4.1,3.2-5.2c1.1-0.7,2.5-1,3.8-0.9c2.1,0.2,4.7,0.4,7.7,0.7
	c4.9,0.4,10.9,0.9,17.9,1.4c13,0.9,29.3,2,48,2.9c52,2.5,122.2,3.9,188.9-1.3c3-0.3,6.1-0.4,9.1-0.7c1.2-0.1,2.4,0.1,3.5,0.7
	c0.3,0.2,0.6,0.3,0.9,0.5c0.9,0.6,1.6,1.5,2,2.5l0.3,0.6C635.6,495.9,635.7,496.8,635.6,497.8z"/>
<path class="st5" d="M296.3,508.1l0,3.2c0,2.4-1.4,4.5-3.6,5.5l-40.1,0.4c-2.2-1-3.6-3.2-3.5-5.6l0-3L296.3,508.1z"/>
<polygon class="st2" points="296.7,518.7 244.4,519.2 244.5,510.5 296.7,510 "/>
<polygon class="st5" points="296.7,518.7 244.4,519.2 244.5,510.5 296.7,510 "/>
<polygon class="st2" points="298.7,518.8 246.4,519.2 246.5,510.5 298.7,510.1 "/>
<g class="st12">
	<path d="M474.9,193.5c-1-1.3-1.6-2.7-1.9-4.3c-0.2,1.5-0.1,3.1,0.4,4.6C473.9,193.8,474.4,193.7,474.9,193.5z"/>
	<path d="M462.1,200.1c-0.2-1.2-0.3-2.5-0.4-3.7l0,3.7L462.1,200.1z"/>
	<path d="M543.3,234.3c0.1-0.9,0.2-1.7,0.4-2.6c0.5-1.5,0.7-3.1,0.8-4.7c0-0.4-0.1-0.7-0.2-1.1c-0.2,0.9-0.4,1.8-0.6,2.8
		C543.3,230.5,543.1,232.4,543.3,234.3z"/>
	<path d="M522.8,203.2l1.1,0.8c0.9-0.7,1.8-1.4,2.6-2.2c0.8-1,0.9-2.4,0.4-3.6c-0.1,0.2-0.2,0.4-0.4,0.6
		C525.2,200.3,522.5,201.2,522.8,203.2z"/>
	<path d="M440.5,212c-0.4,0.7-0.7,1.5-0.9,2.3c1.6-0.9,3.2-1.5,5-1.9L440.5,212z"/>
	<path d="M454.4,201.2c-0.7-0.4-1.3-0.8-1.9-1.2c0,0.4,0,0.8,0.1,1.2C453.2,201.1,453.8,201.1,454.4,201.2z"/>
	<path d="M551.6,261.1c-0.4,4.9-2.8,9.5-4.6,14.1c-3.8,9.2-5.9,18.9-7.6,28.7c-1.5,8.8-3.2,18.8-10.7,23.5c-2.1,1.3-4.4,2.3-6.8,2.9
		c-10.8,3.6-21.7,7.3-33.1,8.5c-11.4,1.2-23.3,0-33.1-5.8c-2.9-1.5-5.3-3.8-7.1-6.4c-2.7-4.2-2.6-9.5-3.9-14.4
		c-1.1-3.6-2.3-7.1-3.9-10.5c-2.1-5.4-3.8-11-5.4-16.6c-1.5-5.1-3-10.3-4.5-15.4c-0.5-1.6-0.9-3.2-1.1-4.8c-0.4,2.6,0.3,5.2,1,7.8
		c1.5,5.2,3,10.3,4.5,15.4c1.6,5.6,3.3,11.1,5.4,16.6c1.6,3.4,2.8,6.9,3.9,10.5c1.3,4.8,1.2,10.1,3.9,14.4c1.8,2.7,4.3,4.8,7.1,6.4
		c9.8,5.8,21.7,7.1,33.1,5.8c11.4-1.3,22.2-4.9,33.1-8.5c2.4-0.7,4.7-1.7,6.8-2.9c7.4-4.8,9.2-14.8,10.7-23.5
		c1.6-9.8,3.8-19.6,7.6-28.7c2.3-5.5,5.1-10.9,4.7-16.9L551.6,261.1z"/>
	<path d="M432,256L432,256c0.2-1.9,0-3.7-0.4-5.4c-0.2-1.1-0.3-2.2-0.4-3.3c-0.1,2.1,0,4.2,0.3,6.3C431.7,254.5,431.9,255.3,432,256
		z"/>
	<path d="M435.2,231.6c0.8-1.3,1.6-2.5,2.6-3.7c-1.8,1.8-5.2,0.1-5.9-2.3c-0.3,1-0.3,2,0,3C432.4,230.2,433.7,231.3,435.2,231.6z"/>
</g>
<path class="st5" d="M682.4,490.7c0,0,3.1,11.5-0.2,21.5C678.9,522.1,682.4,490.7,682.4,490.7z"/>
<path class="st5" d="M695.8,502.5c0,0,1.2,14.6-1.9,17.2C690.9,522.3,695.8,502.5,695.8,502.5z"/>
<line class="st13" x1="198.8" y1="345.1" x2="300.4" y2="345.1"/>
<line class="st13" x1="198.7" y1="357.5" x2="300.3" y2="357.5"/>
<line class="st13" x1="198.5" y1="370" x2="300.1" y2="370"/>
</svg>
